<svg width="126" height="30" viewBox="0 0 126 30" fill="none" xmlns="http://www.w3.org/2000/svg">
<path d="M11.5011 14.1148L16.0275 11.5013L11.5011 8.91406L6.97461 11.5013L11.5011 14.1148Z" fill="#98938A"/>
<path d="M12.2661 7.5865L17.775 10.7349C18.2502 10.8481 18.3995 11.3817 18.3995 11.5367V18.0987L22.9995 20.7544V8.86688C22.9994 8.73174 22.9637 8.599 22.8959 8.48212C22.828 8.36524 22.7305 8.26836 22.6131 8.20131L12.2661 1.91577V7.5865ZM6.13281 12.787V18.0189L10.7328 20.6482V15.443L6.13281 12.787Z" fill="#98938A"/>
<path d="M17.5632 19.3865C16.9786 19.7196 19.6804 18.1787 11.8453 22.6439C11.7403 22.6979 11.6261 22.7357 11.4998 22.7357C11.3735 22.7357 11.2593 22.6979 11.1543 22.6439C10.9993 22.5641 5.28259 19.3135 5.43638 19.3865L0.824219 22.0494L11.1195 27.9835C11.2353 28.0498 11.3664 28.0846 11.4998 28.0846C11.6332 28.0846 11.7643 28.0498 11.8801 27.9835L22.1755 22.0493L17.5632 19.3865Z" fill="#98938A"/>
<path d="M16.8667 12.787L12.2667 15.4427V20.6482L16.8667 18.0189V12.787ZM4.6 18.0988V11.5367C4.6 11.5221 4.65454 10.8692 5.22478 10.7349L10.7333 7.5865V1.91577L0.386349 8.20131C0.269009 8.26836 0.171475 8.36524 0.103628 8.48212C0.0357807 8.599 3.08765e-05 8.73174 0 8.86688V20.7546L4.6 18.0988Z" fill="#98938A"/>
<path d="M35.3184 24V5.81152H42.1421C43.5418 5.81152 44.7137 6.05566 45.6577 6.54395C46.6099 7.03223 47.3301 7.71582 47.8184 8.59473C48.3066 9.46549 48.5508 10.4787 48.5508 11.6343C48.5508 12.798 48.3026 13.8071 47.8062 14.6616C47.3179 15.5161 46.5936 16.1753 45.6333 16.6392C44.673 17.103 43.493 17.335 42.0933 17.335H37.2471V14.6128H41.6416C42.4635 14.6128 43.1349 14.4989 43.6558 14.271C44.1847 14.0431 44.5713 13.7095 44.8154 13.27C45.0677 12.8224 45.1938 12.2772 45.1938 11.6343C45.1938 10.9914 45.0677 10.4421 44.8154 9.98633C44.5632 9.52246 44.1766 9.17253 43.6558 8.93652C43.1349 8.69238 42.4595 8.57031 41.6294 8.57031H38.6143V24H35.3184ZM45.5356 24L41.1289 15.748H44.7178L49.2222 24H45.5356ZM57.5605 24.2441C55.9736 24.2441 54.5454 23.8739 53.2759 23.1333C52.0145 22.3927 51.0176 21.3267 50.2852 19.9351C49.5609 18.5435 49.1987 16.8711 49.1987 14.918C49.1987 12.9567 49.5609 11.2803 50.2852 9.88867C51.0176 8.48893 52.0145 7.41878 53.2759 6.67822C54.5454 5.93766 55.9736 5.56738 57.5605 5.56738C59.1556 5.56738 60.5798 5.93766 61.833 6.67822C63.0863 7.41878 64.0791 8.48893 64.8115 9.88867C65.5439 11.2803 65.9102 12.9567 65.9102 14.918C65.9102 16.8711 65.5439 18.5435 64.8115 19.9351C64.0791 21.3267 63.0863 22.3927 61.833 23.1333C60.5798 23.8739 59.1556 24.2441 57.5605 24.2441ZM57.5605 21.29C58.5452 21.29 59.416 21.0459 60.1729 20.5576C60.9297 20.0693 61.5238 19.3532 61.9551 18.4092C62.3864 17.457 62.6021 16.2933 62.6021 14.918C62.6021 13.5345 62.3864 12.3667 61.9551 11.4146C61.5238 10.4624 60.9297 9.74219 60.1729 9.25391C59.416 8.76562 58.5452 8.52148 57.5605 8.52148C56.5758 8.52148 55.701 8.76562 54.936 9.25391C54.1792 9.74219 53.5851 10.4624 53.1538 11.4146C52.7225 12.3667 52.5068 13.5345 52.5068 14.918C52.5068 16.2933 52.7225 17.457 53.1538 18.4092C53.5851 19.3532 54.1792 20.0693 54.936 20.5576C55.701 21.0459 56.5758 21.29 57.5605 21.29ZM74.9932 24.2441C73.4062 24.2441 71.978 23.8739 70.7085 23.1333C69.4471 22.3927 68.4502 21.3267 67.7178 19.9351C66.9935 18.5435 66.6313 16.8711 66.6313 14.918C66.6313 12.9567 66.9935 11.2803 67.7178 9.88867C68.4502 8.48893 69.4471 7.41878 70.7085 6.67822C71.978 5.93766 73.4062 5.56738 74.9932 5.56738C76.5882 5.56738 78.0124 5.93766 79.2656 6.67822C80.5189 7.41878 81.5117 8.48893 82.2441 9.88867C82.9766 11.2803 83.3428 12.9567 83.3428 14.918C83.3428 16.8711 82.9766 18.5435 82.2441 19.9351C81.5117 21.3267 80.5189 22.3927 79.2656 23.1333C78.0124 23.8739 76.5882 24.2441 74.9932 24.2441ZM74.9932 21.29C75.9779 21.29 76.8486 21.0459 77.6055 20.5576C78.3623 20.0693 78.9564 19.3532 79.3877 18.4092C79.819 17.457 80.0347 16.2933 80.0347 14.918C80.0347 13.5345 79.819 12.3667 79.3877 11.4146C78.9564 10.4624 78.3623 9.74219 77.6055 9.25391C76.8486 8.76562 75.9779 8.52148 74.9932 8.52148C74.0085 8.52148 73.1336 8.76562 72.3687 9.25391C71.6118 9.74219 71.0177 10.4624 70.5864 11.4146C70.1551 12.3667 69.9395 13.5345 69.9395 14.918C69.9395 16.2933 70.1551 17.457 70.5864 18.4092C71.0177 19.3532 71.6118 20.0693 72.3687 20.5576C73.1336 21.0459 74.0085 21.29 74.9932 21.29ZM84.5156 5.81152H88.5562L93.9517 18.9829H94.1592L99.5669 5.81152H103.656V24H100.421V11.5H100.275L95.2212 23.939H92.853L87.8604 11.4756H87.6895V24H84.5156V5.81152ZM108.589 5.81152V24H105.293V5.81152H108.589ZM112.984 5.81152L116.988 12.4766H117.135L121.151 5.81152H124.911L119.308 14.918L124.996 24H121.188L117.135 17.3838H116.988L112.936 24H109.151L114.889 14.918L109.225 5.81152H112.984Z" fill="black"/>
</svg>
